<svg width="274" height="82" viewBox="0 0 274 82" fill="none" xmlns="http://www.w3.org/2000/svg">
<path d="M64.4731 48.753H71.9991C71.9991 50.1663 71.9814 51.297 71.9461 52.145C71.9108 52.993 71.8224 53.523 71.6811 53.735C71.5751 53.9117 71.3454 54 70.9921 54H58.5901V17.96C58.5901 17.7833 58.6608 17.5713 58.8021 17.324C58.9434 17.0413 59.2261 16.9 59.6501 16.9H72.3701C72.3701 18.2427 72.3524 19.338 72.3171 20.186C72.2818 21.034 72.1934 21.5817 72.0521 21.829C71.9108 22.041 71.6634 22.147 71.3101 22.147H64.4731V31.21H70.9391C70.9391 32.5173 70.9214 33.6127 70.8861 34.496C70.8508 35.344 70.7624 35.9093 70.6211 36.192C70.5151 36.4747 70.3031 36.616 69.9851 36.616H64.4731V48.753Z" fill="#072866"/>
<path d="M77.9235 54.371C76.5455 54.371 75.5738 54.0707 75.0085 53.47C74.4432 52.834 74.1605 51.88 74.1605 50.608C74.1605 49.548 74.4962 48.647 75.1675 47.905C75.8742 47.163 76.7928 46.792 77.9235 46.792C79.2662 46.792 80.2202 47.1277 80.7855 47.799C81.3508 48.435 81.6335 49.3713 81.6335 50.608C81.6335 51.668 81.2978 52.569 80.6265 53.311C79.9905 54.0177 79.0895 54.371 77.9235 54.371Z" fill="#072866"/>
<path d="M89.0092 54.318C87.2779 54.318 86.1825 53.2757 85.7232 51.191C84.9459 47.693 83.8329 42.022 82.3842 34.178C80.9709 26.2987 80.0345 21.0517 79.5752 18.437C79.5045 18.013 79.4692 17.748 79.4692 17.642C79.4692 17.3593 79.5752 17.165 79.7872 17.059C79.9992 16.953 80.3702 16.9 80.9002 16.9H85.8292L88.5322 34.284C89.0622 37.7113 89.7159 42.6757 90.4932 49.177C90.9879 43.5943 91.5709 38.63 92.2422 34.284L94.5742 18.49C94.6449 17.8893 94.7685 17.483 94.9452 17.271C95.1572 17.0237 95.5105 16.9 96.0052 16.9H101.199L94.1502 54C92.4189 54.212 90.7052 54.318 89.0092 54.318Z" fill="#072866"/>
<path d="M102.715 54.371C101.337 54.371 100.366 54.0707 99.8005 53.47C99.2352 52.834 98.9525 51.88 98.9525 50.608C98.9525 49.548 99.2882 48.647 99.9595 47.905C100.666 47.163 101.585 46.792 102.715 46.792C104.058 46.792 105.012 47.1277 105.577 47.799C106.143 48.435 106.425 49.3713 106.425 50.608C106.425 51.668 106.09 52.569 105.418 53.311C104.782 54.0177 103.881 54.371 102.715 54.371Z" fill="#072866"/>
<path d="M116.766 17.96C116.766 17.6067 116.872 17.3417 117.084 17.165C117.296 16.9883 117.685 16.9 118.25 16.9H123.444C126.094 16.9 128.249 17.5007 129.91 18.702C131.571 19.9033 132.401 22.0763 132.401 25.221C132.401 27.7297 131.906 29.726 130.917 31.21C129.963 32.694 128.832 33.5243 127.525 33.701C131.588 34.125 133.62 36.6867 133.62 41.386C133.62 45.1667 132.807 48.223 131.182 50.555C129.557 52.8517 127.066 54 123.709 54H116.766V17.96ZM123.815 31.528C124.486 31.528 124.999 31.0687 125.352 30.15C125.741 29.2313 125.935 28.0123 125.935 26.493C125.935 24.7617 125.758 23.5957 125.405 22.995C125.087 22.359 124.628 22.041 124.027 22.041H122.755V31.528H123.815ZM123.868 48.912C124.716 48.912 125.387 48.2937 125.882 47.057C126.377 45.8203 126.624 44.1067 126.624 41.916C126.624 40.3613 126.518 39.1953 126.306 38.418C126.129 37.6407 125.847 37.1283 125.458 36.881C125.105 36.6337 124.61 36.51 123.974 36.51H122.755V48.912H123.868Z" fill="#072866"/>
<path d="M143.657 54.53C141.572 54.53 139.947 54.1943 138.781 53.523C137.615 52.8163 136.731 51.4737 136.131 49.495C135.565 47.5163 135.283 44.5837 135.283 40.697C135.283 31.5457 138.215 26.97 144.081 26.97C146.059 26.97 147.632 27.3763 148.798 28.189C149.999 28.9663 150.882 30.3267 151.448 32.27C152.048 34.2133 152.349 36.9517 152.349 40.485C152.349 45.467 151.624 49.0533 150.176 51.244C148.762 53.4347 146.589 54.53 143.657 54.53ZM143.816 49.654C144.24 49.654 144.593 49.4597 144.876 49.071C145.158 48.647 145.388 47.7813 145.565 46.474C145.777 45.1313 145.883 43.188 145.883 40.644C145.883 38.0647 145.83 36.1743 145.724 34.973C145.618 33.7363 145.423 32.906 145.141 32.482C144.858 32.058 144.434 31.846 143.869 31.846C143.197 31.846 142.667 32.4467 142.279 33.648C141.925 34.8493 141.749 37.1813 141.749 40.644C141.749 43.294 141.819 45.2727 141.961 46.58C142.137 47.852 142.367 48.6823 142.65 49.071C142.932 49.4597 143.321 49.654 143.816 49.654Z" fill="#072866"/>
<path d="M162.859 54.53C160.774 54.53 159.149 54.1943 157.983 53.523C156.817 52.8163 155.934 51.4737 155.333 49.495C154.768 47.5163 154.485 44.5837 154.485 40.697C154.485 31.5457 157.418 26.97 163.283 26.97C165.262 26.97 166.834 27.3763 168 28.189C169.201 28.9663 170.085 30.3267 170.65 32.27C171.251 34.2133 171.551 36.9517 171.551 40.485C171.551 45.467 170.827 49.0533 169.378 51.244C167.965 53.4347 165.792 54.53 162.859 54.53ZM163.018 49.654C163.442 49.654 163.795 49.4597 164.078 49.071C164.361 48.647 164.59 47.7813 164.767 46.474C164.979 45.1313 165.085 43.188 165.085 40.644C165.085 38.0647 165.032 36.1743 164.926 34.973C164.82 33.7363 164.626 32.906 164.343 32.482C164.06 32.058 163.636 31.846 163.071 31.846C162.4 31.846 161.87 32.4467 161.481 33.648C161.128 34.8493 160.951 37.1813 160.951 40.644C160.951 43.294 161.022 45.2727 161.163 46.58C161.34 47.852 161.569 48.6823 161.852 49.071C162.135 49.4597 162.523 49.654 163.018 49.654Z" fill="#072866"/>
<path d="M174.376 28.719C175.295 28.295 176.567 27.9063 178.192 27.553C179.853 27.1643 181.319 26.97 182.591 26.97C185.347 26.97 187.308 27.4647 188.474 28.454C189.64 29.4433 190.223 31.2277 190.223 33.807V52.94C190.223 53.3287 190.117 53.5937 189.905 53.735C189.728 53.841 189.128 53.9117 188.103 53.947C187.114 53.9823 185.789 54 184.128 54V35.662C184.128 34.2133 184.004 33.2417 183.757 32.747C183.545 32.2523 183.086 32.005 182.379 32.005C181.602 32.005 180.895 32.217 180.259 32.641V52.94C180.259 53.3287 180.153 53.5937 179.941 53.735C179.764 53.841 179.199 53.9117 178.245 53.947C177.291 53.9823 176.001 54 174.376 54V28.719Z" fill="#072866"/>
<path d="M203.053 48.806C204.749 48.806 206.621 48.3113 208.671 47.322C208.989 48.382 209.148 49.6893 209.148 51.244C209.148 52.2687 208.423 53.0813 206.975 53.682C205.561 54.2473 203.777 54.53 201.622 54.53C198.972 54.53 196.94 53.629 195.527 51.827C194.113 49.9897 193.407 46.7213 193.407 42.022C193.407 37.994 193.813 34.867 194.626 32.641C195.474 30.415 196.569 28.9133 197.912 28.136C199.254 27.3587 200.862 26.97 202.735 26.97C207.257 26.97 209.519 29.8497 209.519 35.609C209.519 38.683 209.271 41.1917 208.777 43.135C206.763 43.559 203.689 43.8063 199.555 43.877C199.661 45.679 199.961 46.951 200.456 47.693C200.95 48.435 201.816 48.806 203.053 48.806ZM201.993 32.058C201.18 32.058 200.579 32.641 200.191 33.807C199.837 34.973 199.625 36.7927 199.555 39.266C201.533 39.266 202.858 39.107 203.53 38.789C203.706 38.259 203.795 37.3403 203.795 36.033C203.795 34.4077 203.671 33.3477 203.424 32.853C203.176 32.323 202.699 32.058 201.993 32.058Z" fill="#072866"/>
<path d="M219.66 17.96C219.66 17.6067 219.766 17.3417 219.978 17.165C220.19 16.9883 220.579 16.9 221.144 16.9H226.232C228.741 16.9 230.72 17.3593 232.168 18.278C233.652 19.1967 234.765 20.875 235.507 23.313C236.249 25.7157 236.62 29.143 236.62 33.595C236.62 40.7323 235.825 45.9263 234.235 49.177C232.645 52.3923 230.066 54 226.497 54H219.66V17.96ZM226.656 48.435C227.328 48.435 227.893 48.064 228.352 47.322C228.812 46.5447 229.183 45.0253 229.465 42.764C229.748 40.4673 229.889 37.199 229.889 32.959C229.889 29.9203 229.748 27.6413 229.465 26.122C229.218 24.5673 228.865 23.5427 228.405 23.048C227.946 22.518 227.345 22.253 226.603 22.253H225.543V48.435H226.656Z" fill="#072866"/>
<path d="M238.811 17.96C238.811 17.6067 238.917 17.3417 239.129 17.165C239.341 16.9883 239.729 16.9 240.295 16.9H245.383C247.891 16.9 249.87 17.3593 251.319 18.278C252.803 19.1967 253.916 20.875 254.658 23.313C255.4 25.7157 255.771 29.143 255.771 33.595C255.771 40.7323 254.976 45.9263 253.386 49.177C251.796 52.3923 249.216 54 245.648 54H238.811V17.96ZM245.807 48.435C246.478 48.435 247.043 48.064 247.503 47.322C247.962 46.5447 248.333 45.0253 248.616 42.764C248.898 40.4673 249.04 37.199 249.04 32.959C249.04 29.9203 248.898 27.6413 248.616 26.122C248.368 24.5673 248.015 23.5427 247.556 23.048C247.096 22.518 246.496 22.253 245.754 22.253H244.694V48.435H245.807Z" fill="#072866"/>
<path d="M264.162 54.53C261.901 54.53 260.17 54.1943 258.968 53.523C257.802 52.8163 257.219 51.9683 257.219 50.979C257.219 50.343 257.325 49.654 257.537 48.912C257.785 48.1347 258.12 47.4103 258.544 46.739C259.11 47.269 259.834 47.693 260.717 48.011C261.636 48.329 262.555 48.488 263.473 48.488C264.887 48.488 265.894 48.1347 266.494 47.428C267.095 46.7213 267.395 45.6967 267.395 44.354C267.395 43.4353 267.219 42.5697 266.865 41.757C266.547 40.9443 265.929 39.9197 265.01 38.683L260.187 32.27C259.021 30.7507 258.226 29.3903 257.802 28.189C257.378 26.9877 257.166 25.751 257.166 24.479C257.166 22.0057 257.979 20.0447 259.604 18.596C261.23 17.112 263.562 16.37 266.6 16.37C269.18 16.37 271.017 16.6173 272.112 17.112C273.243 17.6067 273.808 18.3487 273.808 19.338C273.808 20.504 273.349 21.5993 272.43 22.624C272.112 22.3767 271.494 22.147 270.575 21.935C269.657 21.6877 268.738 21.564 267.819 21.564C266.477 21.564 265.434 21.7937 264.692 22.253C263.95 22.7123 263.579 23.4013 263.579 24.32C263.579 25.1327 263.721 25.8747 264.003 26.546C264.286 27.2173 264.798 28.0477 265.54 29.037L270.628 35.556C271.865 37.146 272.695 38.5947 273.119 39.902C273.579 41.174 273.808 42.605 273.808 44.195C273.808 47.269 273.084 49.76 271.635 51.668C270.187 53.576 267.696 54.53 264.162 54.53Z" fill="#072866"/>
<path d="M47 34.2405V8L23.5 0L0 8V34.2405C0 51.6624 7.57253 68.224 20.7495 79.621L23.5 82L26.2505 79.621C39.4275 68.224 47 51.6624 47 34.2405Z" fill="url(#paint0_radial_306_34)"/>
<g style="mix-blend-mode:color-burn">
<path d="M47 32.4371V34.2404C47 34.9223 46.9884 35.6028 46.9653 36.2818L24.1381 58.174L4.42869 56.8641C1.53617 49.7596 0 42.0873 0 34.2404V13.5825L5.86193 7.96069L38.8902 10.1557L47 32.4371Z" fill="#C4C4C4"/>
</g>
<g style="mix-blend-mode:color-burn">
<path d="M46.5332 41.7132L35.7266 15.7184L16.4175 2.41101L0 7.99994V34.2404C0 41.1416 1.18822 47.9078 3.44234 54.2715L31.986 73.9431C39.9579 64.911 45.0322 53.6752 46.5332 41.7132Z" fill="#C4C4C4"/>
</g>
<g style="mix-blend-mode:color-burn">
<path d="M9.55546 57.094L35.496 33.5796L37.4464 4.7477L23.5 0L0 8V34.2405C0 41.0816 1.16762 47.79 3.3837 54.1052L9.55546 57.094Z" fill="#C4C4C4"/>
</g>
<path d="M22.841 18.5886C24.5 18.5638 25.9708 18.3595 27.5 17.2116C29.0292 16.0638 29.5 14.5638 33 14.0638C36.5 13.5638 39 16.0886 40 18.5886C41 21.0887 41 22.8909 41 26.8171C41 30.1318 39.9375 33.9073 39.1413 36.9203C38.3043 40.0875 36.0889 43.3196 36.0889 46.8945C36.0889 50.8017 35.7222 55.6279 34.8611 57.8458C34 60.0638 33.2788 61.5764 31.3483 60.9801C30.0552 60.5806 29.0292 58.8108 29.0292 57.514C28.5175 54.4249 28.4398 50.4083 26.6418 47.3186C23.9908 44.5662 21.0988 49.5494 20.6625 53.6976C20.2261 57.8458 18.4224 62.7119 16.1375 61.4041C15.0574 61.1932 13.5114 58.7322 13.1362 57.0162C12.7611 55.3002 12.7611 52.3942 12.7611 50.379C12.7611 48.3419 13.068 46.1899 13.068 44.0737C13.068 42.5312 12.5 40.0638 11.6076 38.598C10.7152 37.1323 8.5 32.0638 8.00344 30.6335C7.50688 29.2031 7 27.5638 7 25.7226V25.7226C7 23.8814 7 22.0638 7.49993 20.0638C7.99986 18.0638 8.51835 17.4128 9.5 16.5638C10.703 15.5233 12.4568 15.0638 14 15.0638C15.2789 15.0638 17.5 16.5638 18.5 17.2116C19.5 17.8595 21.1821 18.6135 22.841 18.5886Z" fill="white"/>
<path d="M61.017 66.376V69.372H64.811V70.877H61.017V75H59.127V64.878H65.511V66.376H61.017Z" fill="#072866"/>
<path d="M72.5507 71.178L71.3187 67.811C71.258 67.6617 71.195 67.4843 71.1297 67.279C71.0643 67.0737 70.999 66.852 70.9337 66.614C70.873 66.852 70.81 67.076 70.7447 67.286C70.6793 67.4913 70.6163 67.671 70.5557 67.825L69.3307 71.178H72.5507ZM75.8757 75H74.4197C74.2563 75 74.1233 74.9603 74.0207 74.881C73.918 74.797 73.841 74.6943 73.7897 74.573L73.0337 72.508H68.8407L68.0847 74.573C68.0473 74.6803 67.975 74.7783 67.8677 74.867C67.7603 74.9557 67.6273 75 67.4687 75H65.9987L69.9817 64.878H71.8997L75.8757 75Z" fill="#072866"/>
<path d="M88.8794 64.878V75H87.2204V68.462C87.2204 68.2007 87.2344 67.9183 87.2624 67.615L84.2034 73.362C84.0587 73.6373 83.837 73.775 83.5384 73.775H83.2724C82.9737 73.775 82.752 73.6373 82.6074 73.362L79.5134 67.594C79.5274 67.748 79.539 67.8997 79.5484 68.049C79.5577 68.1983 79.5624 68.336 79.5624 68.462V75H77.9034V64.878H79.3244C79.4084 64.878 79.4807 64.8803 79.5414 64.885C79.602 64.8897 79.6557 64.9013 79.7024 64.92C79.7537 64.9387 79.798 64.969 79.8354 65.011C79.8774 65.053 79.917 65.109 79.9544 65.179L82.9854 70.8C83.0647 70.9493 83.137 71.1033 83.2024 71.262C83.2724 71.4207 83.34 71.584 83.4054 71.752C83.4707 71.5793 83.5384 71.4137 83.6084 71.255C83.6784 71.0917 83.753 70.9353 83.8324 70.786L86.8214 65.179C86.8587 65.109 86.8984 65.053 86.9404 65.011C86.9824 64.969 87.0267 64.9387 87.0734 64.92C87.1247 64.9013 87.1807 64.8897 87.2414 64.885C87.302 64.8803 87.3744 64.878 87.4584 64.878H88.8794Z" fill="#072866"/>
<path d="M94.0077 75H92.1177V64.878H94.0077V75Z" fill="#072866"/>
<path d="M103.183 73.446V75H97.254V64.878H99.137V73.446H103.183Z" fill="#072866"/>
<path d="M108.528 71.08V75H106.652V71.08L102.963 64.878H104.622C104.786 64.878 104.914 64.9177 105.007 64.997C105.105 65.0763 105.187 65.1767 105.252 65.298L107.1 68.679C107.208 68.8797 107.301 69.0687 107.38 69.246C107.464 69.4233 107.539 69.6007 107.604 69.778C107.665 69.6007 107.735 69.4233 107.814 69.246C107.894 69.0687 107.985 68.8797 108.087 68.679L109.928 65.298C109.98 65.1953 110.057 65.0997 110.159 65.011C110.262 64.9223 110.393 64.878 110.551 64.878H112.217L108.528 71.08Z" fill="#072866"/>
<path d="M127.037 69.939C127.037 70.681 126.914 71.3623 126.666 71.983C126.419 72.6037 126.071 73.138 125.623 73.586C125.175 74.034 124.636 74.3817 124.006 74.629C123.376 74.8763 122.676 75 121.906 75H118.049V64.878H121.906C122.676 64.878 123.376 65.004 124.006 65.256C124.636 65.5033 125.175 65.851 125.623 66.299C126.071 66.7423 126.419 67.2743 126.666 67.895C126.914 68.5157 127.037 69.197 127.037 69.939ZM125.105 69.939C125.105 69.3837 125.031 68.8867 124.881 68.448C124.737 68.0047 124.524 67.6313 124.244 67.328C123.969 67.02 123.633 66.7843 123.236 66.621C122.844 66.4577 122.401 66.376 121.906 66.376H119.939V73.502H121.906C122.401 73.502 122.844 73.4203 123.236 73.257C123.633 73.0937 123.969 72.8603 124.244 72.557C124.524 72.249 124.737 71.8757 124.881 71.437C125.031 70.9937 125.105 70.4943 125.105 69.939Z" fill="#072866"/>
<path d="M131.57 66.376V69.183H135.112V70.632H131.57V73.495H136.064V75H129.68V64.878H136.064V66.376H131.57Z" fill="#072866"/>
<path d="M147.246 64.878V75H146.28C146.13 75 146.004 74.9767 145.902 74.93C145.804 74.8787 145.708 74.7947 145.615 74.678L140.33 67.93C140.358 68.238 140.372 68.5227 140.372 68.784V75H138.713V64.878H139.7C139.779 64.878 139.847 64.8827 139.903 64.892C139.963 64.8967 140.015 64.9107 140.057 64.934C140.103 64.9527 140.148 64.983 140.19 65.025C140.232 65.0623 140.278 65.1137 140.33 65.179L145.636 71.955C145.622 71.7917 145.61 71.6307 145.601 71.472C145.591 71.3133 145.587 71.1663 145.587 71.031V64.878H147.246Z" fill="#072866"/>
<path d="M157.55 66.425H154.498V75H152.615V66.425H149.563V64.878H157.55V66.425Z" fill="#072866"/>
<path d="M161.744 75H159.854V64.878H161.744V75Z" fill="#072866"/>
<path d="M170.38 66.719C170.324 66.817 170.264 66.8893 170.198 66.936C170.138 66.978 170.061 66.999 169.967 66.999C169.869 66.999 169.762 66.964 169.645 66.894C169.533 66.8193 169.398 66.7377 169.239 66.649C169.081 66.5603 168.894 66.481 168.679 66.411C168.469 66.3363 168.22 66.299 167.93 66.299C167.669 66.299 167.44 66.3317 167.244 66.397C167.048 66.4577 166.883 66.544 166.747 66.656C166.617 66.768 166.519 66.9033 166.453 67.062C166.388 67.216 166.355 67.3863 166.355 67.573C166.355 67.811 166.421 68.0093 166.551 68.168C166.687 68.3267 166.864 68.462 167.083 68.574C167.303 68.686 167.552 68.7863 167.832 68.875C168.112 68.9637 168.399 69.0593 168.693 69.162C168.987 69.26 169.274 69.3767 169.554 69.512C169.834 69.6427 170.084 69.8107 170.303 70.016C170.523 70.2167 170.698 70.464 170.828 70.758C170.964 71.052 171.031 71.409 171.031 71.829C171.031 72.2863 170.952 72.7157 170.793 73.117C170.639 73.5137 170.411 73.8613 170.107 74.16C169.809 74.454 169.442 74.6873 169.008 74.86C168.574 75.028 168.077 75.112 167.517 75.112C167.195 75.112 166.878 75.0793 166.565 75.014C166.253 74.9533 165.952 74.8647 165.662 74.748C165.378 74.6313 165.109 74.4913 164.857 74.328C164.605 74.1647 164.381 73.9827 164.185 73.782L164.738 72.879C164.785 72.8137 164.846 72.76 164.92 72.718C164.995 72.6713 165.074 72.648 165.158 72.648C165.275 72.648 165.401 72.697 165.536 72.795C165.672 72.8883 165.833 72.9933 166.019 73.11C166.206 73.2267 166.423 73.334 166.67 73.432C166.922 73.5253 167.223 73.572 167.573 73.572C168.11 73.572 168.525 73.446 168.819 73.194C169.113 72.9373 169.26 72.571 169.26 72.095C169.26 71.829 169.193 71.612 169.057 71.444C168.927 71.276 168.752 71.136 168.532 71.024C168.313 70.9073 168.063 70.8093 167.783 70.73C167.503 70.6507 167.219 70.5643 166.929 70.471C166.64 70.3777 166.355 70.2657 166.075 70.135C165.795 70.0043 165.546 69.834 165.326 69.624C165.107 69.414 164.93 69.1527 164.794 68.84C164.664 68.5227 164.598 68.133 164.598 67.671C164.598 67.3023 164.671 66.943 164.815 66.593C164.965 66.243 165.179 65.9327 165.459 65.662C165.739 65.3913 166.085 65.1743 166.495 65.011C166.906 64.8477 167.377 64.766 167.909 64.766C168.507 64.766 169.057 64.8593 169.561 65.046C170.065 65.2327 170.495 65.494 170.849 65.83L170.38 66.719Z" fill="#072866"/>
<path d="M180.724 66.425H177.672V75H175.789V66.425H172.737V64.878H180.724V66.425Z" fill="#072866"/>
<path d="M186.088 69.694C186.442 69.694 186.75 69.6497 187.012 69.561C187.278 69.4723 187.495 69.351 187.663 69.197C187.835 69.0383 187.964 68.8517 188.048 68.637C188.132 68.4223 188.174 68.1867 188.174 67.93C188.174 67.4167 188.003 67.0223 187.663 66.747C187.327 66.4717 186.811 66.334 186.116 66.334H184.912V69.694H186.088ZM190.932 75H189.231C188.909 75 188.675 74.874 188.531 74.622L186.403 71.381C186.323 71.2597 186.235 71.1733 186.137 71.122C186.043 71.0707 185.903 71.045 185.717 71.045H184.912V75H183.029V64.878H186.116C186.802 64.878 187.39 64.9503 187.88 65.095C188.374 65.235 188.778 65.4333 189.091 65.69C189.408 65.9467 189.641 66.2547 189.791 66.614C189.94 66.9687 190.015 67.3607 190.015 67.79C190.015 68.1307 189.963 68.4527 189.861 68.756C189.763 69.0593 189.618 69.3347 189.427 69.582C189.24 69.8293 189.007 70.0463 188.727 70.233C188.451 70.4197 188.136 70.5667 187.782 70.674C187.903 70.744 188.015 70.828 188.118 70.926C188.22 71.0193 188.314 71.1313 188.398 71.262L190.932 75Z" fill="#072866"/>
<path d="M196.887 71.08V75H195.011V71.08L191.322 64.878H192.981C193.144 64.878 193.273 64.9177 193.366 64.997C193.464 65.0763 193.546 65.1767 193.611 65.298L195.459 68.679C195.566 68.8797 195.66 69.0687 195.739 69.246C195.823 69.4233 195.898 69.6007 195.963 69.778C196.024 69.6007 196.094 69.4233 196.173 69.246C196.252 69.0687 196.343 68.8797 196.446 68.679L198.287 65.298C198.338 65.1953 198.415 65.0997 198.518 65.011C198.621 64.9223 198.751 64.878 198.91 64.878H200.576L196.887 71.08Z" fill="#072866"/>
<defs>
<radialGradient id="paint0_radial_306_34" cx="0" cy="0" r="1" gradientUnits="userSpaceOnUse" gradientTransform="translate(37.5 13) rotate(118.523) scale(78.5318 62.3411)">
<stop stop-color="#1F9FE8"/>
<stop offset="1" stop-color="#004ABA"/>
</radialGradient>
</defs>
</svg>
